<?xml version="1.0" standalone="no"?>
<!DOCTYPE svg PUBLIC "-//W3C//DTD SVG 20010904//EN"
 "http://www.w3.org/TR/2001/REC-SVG-20010904/DTD/svg10.dtd">
<svg version="1.0" xmlns="http://www.w3.org/2000/svg"
 width="512.000000pt" height="512.000000pt" viewBox="0 0 512.000000 512.000000"
 preserveAspectRatio="xMidYMid meet">
<metadata>
Created by potrace 1.14, written by Peter Selinger 2001-2017
</metadata>
<g transform="translate(0.000000,512.000000) scale(0.100000,-0.100000)"
fill="#000000" stroke="none">
<path d="M2495 5106 c-37 -17 -101 -84 -339 -356 -58 -65 -210 -259 -304 -385
-110 -148 -342 -491 -363 -537 -7 -16 -16 -28 -21 -28 -4 0 -8 -4 -8 -9 0 -5
-20 -43 -45 -85 -105 -178 -235 -433 -305 -601 -5 -11 -20 -45 -33 -75 -86
-199 -208 -608 -232 -780 -3 -25 -8 -52 -10 -60 -3 -8 -7 -40 -11 -70 -3 -30
-8 -68 -10 -85 -10 -64 -12 -394 -3 -470 68 -599 439 -1125 979 -1387 86 -41
221 -95 261 -103 8 -2 39 -10 67 -19 29 -8 52 -13 52 -11 0 3 10 1 23 -4 22
-9 60 -15 182 -31 66 -8 383 -6 430 4 17 3 66 13 110 22 44 8 133 33 198 54
571 190 1006 663 1151 1250 55 226 64 421 32 730 -50 480 -270 1085 -598 1640
-63 108 -88 134 -138 148 -43 11 -75 7 -113 -16 -50 -29 -70 -65 -78 -142 -31
-291 -345 -417 -559 -224 -22 20 -52 61 -67 92 l-28 57 -5 695 c-5 672 -6 696
-25 728 -37 62 -123 88 -190 58z"/>
</g>
</svg>
